<svg xmlns="http://www.w3.org/2000/svg" width="464.74" height="264.582" viewBox="0 0 464.74 264.582">
  <g id="Group_9" data-name="Group 9" transform="translate(-316 -377.458)">
    <path id="Path_5" data-name="Path 5" d="M54.06,15.97l-8.7,11.166,13.4,12.717H18.2V53.818l40.564-.489L45.8,63.573l8.97,11.28,36.94-29.728Z" transform="translate(557.888 567.187)" fill="#3d3d3d"/>
    <path id="Path_6" data-name="Path 6" d="M37.672,60.812l8.7-11.167L33.15,38.417l40.564-.487-.18-14.965-40.564.487L45.934,13.21,36.964,1.93.024,31.657Z" transform="translate(315.976 375.528)" fill="#3d3d3d"/>
    <path id="Path_7" data-name="Path 7" d="M103.975,123.1q0,20.811-15.094,32.455T47.906,167.2q-28.034,0-43.13-7.224V142.292A113.579,113.579,0,0,0,25.91,148.76a111.114,111.114,0,0,0,22.643,2.373q18.33,0,27.6-6.9,9.272-7.009,9.273-19.408,0-8.195-3.343-13.37-3.234-5.284-11-9.7-7.656-4.421-23.4-10.028-22-7.87-31.485-18.653Q6.825,62.285,6.825,44.926q0-18.223,13.694-29T56.748,5.138a106.778,106.778,0,0,1,43.238,8.626L94.271,29.722q-19.517-8.195-37.955-8.195-14.556,0-22.751,6.254t-8.195,17.36q0,8.195,3.019,13.478,3.019,5.175,10.136,9.6,7.224,4.313,22,9.6,24.8,8.842,34.072,18.978Q103.975,106.926,103.975,123.1Z" transform="translate(381.186 419.551)" fill="#003cff"/>
    <path id="Path_8" data-name="Path 8" d="M31.232,43.386H27.566V28.55H10.961V43.386H7.294V11.858h3.666V25.271H27.566V11.858h3.666Z" transform="translate(415.738 511.764)" fill="#fff"/>
    <path id="Path_9" data-name="Path 9" d="M29.863,20.64V35.973a6.165,6.165,0,0,0,1.316,4.313A5.357,5.357,0,0,0,35.3,41.71q3.708,0,5.412-2.027,1.727-2.027,1.725-6.62V20.64h3.58V44.276H43.061l-.517-3.17H42.35a7.127,7.127,0,0,1-3.062,2.673,10.186,10.186,0,0,1-4.443.927q-4.313,0-6.469-2.049Q26.241,40.611,26.24,36.1V20.64ZM76.1,20.253a8.74,8.74,0,0,1,7.224,3.192q2.588,3.169,2.588,8.992T83.3,41.493a8.733,8.733,0,0,1-7.2,3.214,10.424,10.424,0,0,1-4.228-.841,8.052,8.052,0,0,1-3.192-2.631h-.258l-.755,3.04H65.1V10.721H68.68v8.151q0,2.738-.172,4.917h.172A8.5,8.5,0,0,1,76.1,20.253Zm-.518,3q-3.666,0-5.284,2.113-1.617,2.093-1.618,7.074t1.661,7.139Q72,41.708,75.668,41.71a5.527,5.527,0,0,0,4.916-2.394Q82.2,36.9,82.2,32.394q0-4.615-1.618-6.879A5.728,5.728,0,0,0,75.581,23.25Z" transform="translate(675.706 496.153)" fill="#fff"/>
    <path id="Path_10" data-name="Path 10" d="M36.152,42.507,32.228,32.479H19.59L15.71,42.507H12L24.465,10.85h3.084l12.4,31.658ZM31.085,29.18l-3.666-9.768q-.713-1.855-1.466-4.55a41.174,41.174,0,0,1-1.359,4.55l-3.71,9.768Zm28.336.216V42.507H55.756V10.979H64.4q5.8,0,8.561,2.221,2.782,2.222,2.782,6.685,0,6.254-6.341,8.453l8.562,14.168H73.632L66,29.4Zm0-3.149h5.025q3.882,0,5.693-1.531a5.772,5.772,0,0,0,1.812-4.636A5.251,5.251,0,0,0,70.1,15.572q-1.833-1.38-5.909-1.379H59.422ZM112.1,42.507H94.53V10.979H112.1v3.256H98.2V24.392h13.068v3.236H98.2v11.6H112.1Z" transform="translate(480.306 497.921)" fill="#fff"/>
    <path id="Path_11" data-name="Path 11" d="M99.773,112.955H87.552V63.5H32.2v49.456H19.981V7.861H32.2V52.572H87.552V7.861h12.22Z" transform="translate(589.825 456.917)" fill="#003cff"/>
    <path id="Path_13" data-name="Path 13" d="M31.1,3.87V208.8" transform="translate(742.392 402.149)" fill="none" stroke="#3d3d3d" stroke-width="14"/>
    <path id="Path_14" data-name="Path 14" d="M38.361,17.722A7.361,7.361,0,1,0,31,10.361,7.361,7.361,0,0,0,38.361,17.722Z" transform="translate(735.018 395.212)" fill="#3d3d3d"/>
    <path id="Path_15" data-name="Path 15" d="M250.187,18.007H1.563" transform="translate(337.092 596.134)" fill="none" stroke="#3d3d3d" stroke-width="14"/>
    <path id="Path_16" data-name="Path 16" d="M1.563,141.6V9" transform="translate(337.086 472.542)" fill="none" stroke="#3d3d3d" stroke-width="14"/>
    <path id="Path_17" data-name="Path 17" d="M9.288,17.444a8.288,8.288,0,1,0,8.287,8.288A8.288,8.288,0,0,0,9.288,17.444Z" transform="translate(330.369 586.409)" fill="#3d3d3d"/>
    <path id="Path_12" data-name="Path 12" d="M5,3.87H389.236" transform="translate(382.254 402.149)" fill="none" stroke="#3d3d3d" stroke-width="15"/>
  </g>
</svg>
