<svg width="394" height="436" viewBox="0 0 394 436" fill="none" xmlns="http://www.w3.org/2000/svg">
<path d="M254.952 198.945L247.591 208.394L258.779 217.896L224.455 218.308L224.607 230.971L258.931 230.559L247.961 239.225L255.551 248.77L286.809 223.616L254.952 198.945Z" fill="#3D3D3D"/>
<path d="M32.1545 73.8663L39.5158 64.4171L28.3278 54.9155L62.6516 54.503L62.4995 41.8403L28.1756 42.2528L39.1453 33.5862L31.5558 24.0413L0.29766 49.1953L32.1545 73.8663Z" fill="#3D3D3D"/>
<path d="M143.437 163.508C143.437 175.247 139.179 184.402 130.664 190.971C122.148 197.54 110.591 200.825 95.993 200.825C80.1783 200.825 68.0131 198.787 59.4975 194.712V179.749C64.9718 182.06 70.9328 183.885 77.3803 185.223C83.8278 186.561 90.2146 187.23 96.5405 187.23C106.881 187.23 114.667 185.284 119.898 181.391C125.129 177.437 127.744 171.963 127.744 164.968C127.744 160.345 126.801 156.574 124.916 153.654C123.091 150.674 119.989 147.937 115.609 145.443C111.291 142.949 104.691 140.121 95.8105 136.958C83.4021 132.517 74.5215 127.256 69.1688 121.173C63.877 115.091 61.231 107.153 61.231 97.3599C61.231 87.0804 65.0935 78.8993 72.8184 72.8167C80.5432 66.7341 90.762 63.6928 103.475 63.6928C116.735 63.6928 128.93 66.1258 140.061 70.9919L135.226 84.4953C124.216 79.8725 113.511 77.5611 103.11 77.5611C94.8982 77.5611 88.481 79.3251 83.8583 82.853C79.2355 86.3809 76.9241 91.2773 76.9241 97.5424C76.9241 102.165 77.7757 105.967 79.4788 108.947C81.1819 111.867 84.0407 114.574 88.0552 117.068C92.1306 119.501 98.3348 122.207 106.668 125.188C120.658 130.176 130.268 135.528 135.499 141.246C140.791 146.963 143.437 154.384 143.437 163.508Z" fill="#003CFF"/>
<path d="M98.6645 177.029H95.5624V164.474H81.5116V177.029H78.4095V150.35H81.5116V161.7H95.5624V150.35H98.6645V177.029Z" fill="white"/>
<path d="M329.942 144.572V157.546C329.942 159.176 330.313 160.393 331.055 161.196C331.797 161.998 332.959 162.4 334.54 162.4C336.633 162.4 338.16 161.828 339.121 160.685C340.094 159.541 340.58 157.674 340.58 155.083V144.572H343.61V164.571H341.11L340.672 161.889H340.508C339.887 162.874 339.023 163.629 337.916 164.152C336.821 164.675 335.568 164.936 334.157 164.936C331.724 164.936 329.899 164.359 328.683 163.203C327.479 162.047 326.876 160.198 326.876 157.656V144.572H329.942ZM369.065 144.243C371.693 144.243 373.731 145.144 375.178 146.944C376.638 148.732 377.368 151.269 377.368 154.553C377.368 157.838 376.632 160.393 375.16 162.217C373.7 164.03 371.669 164.936 369.065 164.936C367.764 164.936 366.571 164.699 365.489 164.225C364.418 163.738 363.518 162.996 362.788 161.998H362.569L361.93 164.571H359.759V136.178H362.788V143.076C362.788 144.621 362.739 146.007 362.642 147.236H362.788C364.199 145.241 366.292 144.243 369.065 144.243ZM368.627 146.78C366.559 146.78 365.069 147.376 364.157 148.568C363.244 149.748 362.788 151.743 362.788 154.553C362.788 157.364 363.256 159.377 364.193 160.593C365.13 161.798 366.632 162.4 368.7 162.4C370.562 162.4 371.948 161.725 372.861 160.374C373.773 159.012 374.229 157.059 374.229 154.517C374.229 151.914 373.773 149.973 372.861 148.696C371.948 147.419 370.537 146.78 368.627 146.78Z" fill="white"/>
<path d="M169.921 164.571L166.6 156.086H155.907L152.623 164.571H149.484L160.031 137.784H162.641L173.133 164.571H169.921ZM165.633 153.294L162.531 145.028C162.13 143.982 161.716 142.698 161.29 141.178C161.023 142.346 160.639 143.629 160.141 145.028L157.002 153.294H165.633ZM189.611 153.477V164.571H186.509V137.893H193.826C197.098 137.893 199.513 138.52 201.07 139.773C202.64 141.026 203.424 142.911 203.424 145.43C203.424 148.957 201.636 151.342 198.059 152.583L205.304 164.571H201.636L195.176 153.477H189.611ZM189.611 150.813H193.862C196.052 150.813 197.658 150.381 198.68 149.517C199.702 148.641 200.213 147.333 200.213 145.594C200.213 143.83 199.69 142.559 198.643 141.78C197.609 141.001 195.943 140.612 193.643 140.612H189.611V150.813ZM234.19 164.571H219.318V137.893H234.19V140.649H222.42V149.243H233.478V151.98H222.42V161.798H234.19V164.571Z" fill="white"/>
<path d="M316.427 182.829H306.086V140.98H259.25V182.829H248.91V93.9011H259.25V131.735H306.086V93.9011H316.427V182.829Z" fill="#003CFF"/>
<path d="M62.2837 48.2091H387.415" stroke="#323232" stroke-width="12.4571"/>
<path d="M387.416 48.2091V221.612" stroke="#323232" stroke-width="12.4571"/>
<path d="M387.229 54.4571C390.669 54.4571 393.457 51.6685 393.457 48.2286C393.457 44.7886 390.669 42 387.229 42C383.789 42 381 44.7886 381 48.2286C381 51.6685 383.789 54.4571 387.229 54.4571Z" fill="#323232"/>
<path d="M229.847 224.317H19.4675" stroke="#323232" stroke-width="12.4571"/>
<path d="M19.4624 224.317V112.114" stroke="#323232" stroke-width="12.4571"/>
<path d="M19.4683 217.304C15.5953 217.304 12.4557 220.444 12.4557 224.317C12.4557 228.19 15.5953 231.329 19.4683 231.329C23.3413 231.329 26.481 228.19 26.481 224.317C26.481 220.444 23.3413 217.304 19.4683 217.304Z" fill="#323232"/>
</svg>
